<svg width="78" height="742" viewBox="0 0 78 742" fill="none" xmlns="http://www.w3.org/2000/svg">
<rect width="78" height="742" fill="#EB008B"/>
<path d="M51.192 32.632C51.608 33.24 52.04 33.944 52.488 34.744C52.968 35.512 53.416 36.296 53.832 37.096C54.28 37.864 54.632 38.536 54.888 39.112L50.136 41.08C49.848 40.376 49.496 39.64 49.08 38.872C48.664 38.104 48.232 37.352 47.784 36.616C47.368 35.848 46.936 35.16 46.488 34.552L51.192 32.632ZM57.912 31C58.328 31.608 58.776 32.312 59.256 33.112C59.736 33.88 60.184 34.648 60.6 35.416C61.048 36.184 61.416 36.84 61.704 37.384L56.952 39.4C56.44 38.408 55.848 37.304 55.176 36.088C54.504 34.872 53.832 33.816 53.16 32.92L57.912 31ZM20.856 39.832C21.816 39.928 22.888 40.008 24.072 40.072C25.288 40.136 26.328 40.168 27.192 40.168H51.672C52.44 40.168 53.304 40.152 54.264 40.12C55.224 40.088 55.88 40.056 56.232 40.024C56.2 40.6 56.168 41.352 56.136 42.28C56.104 43.208 56.088 44.072 56.088 44.872V69.784C56.088 70.584 56.104 71.592 56.136 72.808C56.2 74.024 56.264 75.096 56.328 76.024H47.88C47.912 75.096 47.928 74.2 47.928 73.336C47.96 72.472 47.976 71.592 47.976 70.696V47.704H27.192C26.104 47.704 24.952 47.72 23.736 47.752C22.552 47.784 21.592 47.832 20.856 47.896V39.832ZM20.28 65.656C21.208 65.72 22.216 65.784 23.304 65.848C24.392 65.912 25.496 65.944 26.616 65.944H52.68V73.624H26.856C25.96 73.624 24.856 73.656 23.544 73.72C22.232 73.784 21.144 73.864 20.28 73.96V65.656ZM51.192 122.632C51.608 123.24 52.04 123.944 52.488 124.744C52.968 125.512 53.416 126.296 53.832 127.096C54.28 127.864 54.632 128.536 54.888 129.112L50.136 131.08C49.848 130.376 49.496 129.64 49.08 128.872C48.664 128.104 48.232 127.352 47.784 126.616C47.368 125.848 46.936 125.16 46.488 124.552L51.192 122.632ZM57.912 121C58.328 121.608 58.776 122.312 59.256 123.112C59.736 123.88 60.184 124.648 60.6 125.416C61.048 126.184 61.416 126.84 61.704 127.384L56.952 129.4C56.44 128.408 55.848 127.304 55.176 126.088C54.504 124.872 53.832 123.816 53.16 122.92L57.912 121ZM20.856 129.832C21.816 129.928 22.888 130.008 24.072 130.072C25.288 130.136 26.328 130.168 27.192 130.168H51.672C52.44 130.168 53.304 130.152 54.264 130.12C55.224 130.088 55.88 130.056 56.232 130.024C56.2 130.6 56.168 131.352 56.136 132.28C56.104 133.208 56.088 134.072 56.088 134.872V159.784C56.088 160.584 56.104 161.592 56.136 162.808C56.2 164.024 56.264 165.096 56.328 166.024H47.88C47.912 165.096 47.928 164.2 47.928 163.336C47.96 162.472 47.976 161.592 47.976 160.696V137.704H27.192C26.104 137.704 24.952 137.72 23.736 137.752C22.552 137.784 21.592 137.832 20.856 137.896V129.832ZM20.28 155.656C21.208 155.72 22.216 155.784 23.304 155.848C24.392 155.912 25.496 155.944 26.616 155.944H52.68V163.624H26.856C25.96 163.624 24.856 163.656 23.544 163.72C22.232 163.784 21.144 163.864 20.28 163.96V155.656ZM51.192 212.632C51.608 213.24 52.04 213.944 52.488 214.744C52.968 215.512 53.416 216.296 53.832 217.096C54.28 217.864 54.632 218.536 54.888 219.112L50.136 221.08C49.848 220.376 49.496 219.64 49.08 218.872C48.664 218.104 48.232 217.352 47.784 216.616C47.368 215.848 46.936 215.16 46.488 214.552L51.192 212.632ZM57.912 211C58.328 211.608 58.776 212.312 59.256 213.112C59.736 213.88 60.184 214.648 60.6 215.416C61.048 216.184 61.416 216.84 61.704 217.384L56.952 219.4C56.44 218.408 55.848 217.304 55.176 216.088C54.504 214.872 53.832 213.816 53.16 212.92L57.912 211ZM20.856 219.832C21.816 219.928 22.888 220.008 24.072 220.072C25.288 220.136 26.328 220.168 27.192 220.168H51.672C52.44 220.168 53.304 220.152 54.264 220.12C55.224 220.088 55.88 220.056 56.232 220.024C56.2 220.6 56.168 221.352 56.136 222.28C56.104 223.208 56.088 224.072 56.088 224.872V249.784C56.088 250.584 56.104 251.592 56.136 252.808C56.2 254.024 56.264 255.096 56.328 256.024H47.88C47.912 255.096 47.928 254.2 47.928 253.336C47.96 252.472 47.976 251.592 47.976 250.696V227.704H27.192C26.104 227.704 24.952 227.72 23.736 227.752C22.552 227.784 21.592 227.832 20.856 227.896V219.832ZM20.28 245.656C21.208 245.72 22.216 245.784 23.304 245.848C24.392 245.912 25.496 245.944 26.616 245.944H52.68V253.624H26.856C25.96 253.624 24.856 253.656 23.544 253.72C22.232 253.784 21.144 253.864 20.28 253.96V245.656ZM51.192 302.632C51.608 303.24 52.04 303.944 52.488 304.744C52.968 305.512 53.416 306.296 53.832 307.096C54.28 307.864 54.632 308.536 54.888 309.112L50.136 311.08C49.848 310.376 49.496 309.64 49.08 308.872C48.664 308.104 48.232 307.352 47.784 306.616C47.368 305.848 46.936 305.16 46.488 304.552L51.192 302.632ZM57.912 301C58.328 301.608 58.776 302.312 59.256 303.112C59.736 303.88 60.184 304.648 60.6 305.416C61.048 306.184 61.416 306.84 61.704 307.384L56.952 309.4C56.44 308.408 55.848 307.304 55.176 306.088C54.504 304.872 53.832 303.816 53.16 302.92L57.912 301ZM20.856 309.832C21.816 309.928 22.888 310.008 24.072 310.072C25.288 310.136 26.328 310.168 27.192 310.168H51.672C52.44 310.168 53.304 310.152 54.264 310.12C55.224 310.088 55.88 310.056 56.232 310.024C56.2 310.6 56.168 311.352 56.136 312.28C56.104 313.208 56.088 314.072 56.088 314.872V339.784C56.088 340.584 56.104 341.592 56.136 342.808C56.2 344.024 56.264 345.096 56.328 346.024H47.88C47.912 345.096 47.928 344.2 47.928 343.336C47.96 342.472 47.976 341.592 47.976 340.696V317.704H27.192C26.104 317.704 24.952 317.72 23.736 317.752C22.552 317.784 21.592 317.832 20.856 317.896V309.832ZM20.28 335.656C21.208 335.72 22.216 335.784 23.304 335.848C24.392 335.912 25.496 335.944 26.616 335.944H52.68V343.624H26.856C25.96 343.624 24.856 343.656 23.544 343.72C22.232 343.784 21.144 343.864 20.28 343.96V335.656ZM51.192 392.632C51.608 393.24 52.04 393.944 52.488 394.744C52.968 395.512 53.416 396.296 53.832 397.096C54.28 397.864 54.632 398.536 54.888 399.112L50.136 401.08C49.848 400.376 49.496 399.64 49.08 398.872C48.664 398.104 48.232 397.352 47.784 396.616C47.368 395.848 46.936 395.16 46.488 394.552L51.192 392.632ZM57.912 391C58.328 391.608 58.776 392.312 59.256 393.112C59.736 393.88 60.184 394.648 60.6 395.416C61.048 396.184 61.416 396.84 61.704 397.384L56.952 399.4C56.44 398.408 55.848 397.304 55.176 396.088C54.504 394.872 53.832 393.816 53.16 392.92L57.912 391ZM20.856 399.832C21.816 399.928 22.888 400.008 24.072 400.072C25.288 400.136 26.328 400.168 27.192 400.168H51.672C52.44 400.168 53.304 400.152 54.264 400.12C55.224 400.088 55.88 400.056 56.232 400.024C56.2 400.6 56.168 401.352 56.136 402.28C56.104 403.208 56.088 404.072 56.088 404.872V429.784C56.088 430.584 56.104 431.592 56.136 432.808C56.2 434.024 56.264 435.096 56.328 436.024H47.88C47.912 435.096 47.928 434.2 47.928 433.336C47.96 432.472 47.976 431.592 47.976 430.696V407.704H27.192C26.104 407.704 24.952 407.72 23.736 407.752C22.552 407.784 21.592 407.832 20.856 407.896V399.832ZM20.28 425.656C21.208 425.72 22.216 425.784 23.304 425.848C24.392 425.912 25.496 425.944 26.616 425.944H52.68V433.624H26.856C25.96 433.624 24.856 433.656 23.544 433.72C22.232 433.784 21.144 433.864 20.28 433.96V425.656ZM51.192 482.632C51.608 483.24 52.04 483.944 52.488 484.744C52.968 485.512 53.416 486.296 53.832 487.096C54.28 487.864 54.632 488.536 54.888 489.112L50.136 491.08C49.848 490.376 49.496 489.64 49.08 488.872C48.664 488.104 48.232 487.352 47.784 486.616C47.368 485.848 46.936 485.16 46.488 484.552L51.192 482.632ZM57.912 481C58.328 481.608 58.776 482.312 59.256 483.112C59.736 483.88 60.184 484.648 60.6 485.416C61.048 486.184 61.416 486.84 61.704 487.384L56.952 489.4C56.44 488.408 55.848 487.304 55.176 486.088C54.504 484.872 53.832 483.816 53.16 482.92L57.912 481ZM20.856 489.832C21.816 489.928 22.888 490.008 24.072 490.072C25.288 490.136 26.328 490.168 27.192 490.168H51.672C52.44 490.168 53.304 490.152 54.264 490.12C55.224 490.088 55.88 490.056 56.232 490.024C56.2 490.6 56.168 491.352 56.136 492.28C56.104 493.208 56.088 494.072 56.088 494.872V519.784C56.088 520.584 56.104 521.592 56.136 522.808C56.2 524.024 56.264 525.096 56.328 526.024H47.88C47.912 525.096 47.928 524.2 47.928 523.336C47.96 522.472 47.976 521.592 47.976 520.696V497.704H27.192C26.104 497.704 24.952 497.72 23.736 497.752C22.552 497.784 21.592 497.832 20.856 497.896V489.832ZM20.28 515.656C21.208 515.72 22.216 515.784 23.304 515.848C24.392 515.912 25.496 515.944 26.616 515.944H52.68V523.624H26.856C25.96 523.624 24.856 523.656 23.544 523.72C22.232 523.784 21.144 523.864 20.28 523.96V515.656ZM51.192 572.632C51.608 573.24 52.04 573.944 52.488 574.744C52.968 575.512 53.416 576.296 53.832 577.096C54.28 577.864 54.632 578.536 54.888 579.112L50.136 581.08C49.848 580.376 49.496 579.64 49.08 578.872C48.664 578.104 48.232 577.352 47.784 576.616C47.368 575.848 46.936 575.16 46.488 574.552L51.192 572.632ZM57.912 571C58.328 571.608 58.776 572.312 59.256 573.112C59.736 573.88 60.184 574.648 60.6 575.416C61.048 576.184 61.416 576.84 61.704 577.384L56.952 579.4C56.44 578.408 55.848 577.304 55.176 576.088C54.504 574.872 53.832 573.816 53.16 572.92L57.912 571ZM20.856 579.832C21.816 579.928 22.888 580.008 24.072 580.072C25.288 580.136 26.328 580.168 27.192 580.168H51.672C52.44 580.168 53.304 580.152 54.264 580.12C55.224 580.088 55.88 580.056 56.232 580.024C56.2 580.6 56.168 581.352 56.136 582.28C56.104 583.208 56.088 584.072 56.088 584.872V609.784C56.088 610.584 56.104 611.592 56.136 612.808C56.2 614.024 56.264 615.096 56.328 616.024H47.88C47.912 615.096 47.928 614.2 47.928 613.336C47.96 612.472 47.976 611.592 47.976 610.696V587.704H27.192C26.104 587.704 24.952 587.72 23.736 587.752C22.552 587.784 21.592 587.832 20.856 587.896V579.832ZM20.28 605.656C21.208 605.72 22.216 605.784 23.304 605.848C24.392 605.912 25.496 605.944 26.616 605.944H52.68V613.624H26.856C25.96 613.624 24.856 613.656 23.544 613.72C22.232 613.784 21.144 613.864 20.28 613.96V605.656ZM51.192 662.632C51.608 663.24 52.04 663.944 52.488 664.744C52.968 665.512 53.416 666.296 53.832 667.096C54.28 667.864 54.632 668.536 54.888 669.112L50.136 671.08C49.848 670.376 49.496 669.64 49.08 668.872C48.664 668.104 48.232 667.352 47.784 666.616C47.368 665.848 46.936 665.16 46.488 664.552L51.192 662.632ZM57.912 661C58.328 661.608 58.776 662.312 59.256 663.112C59.736 663.88 60.184 664.648 60.6 665.416C61.048 666.184 61.416 666.84 61.704 667.384L56.952 669.4C56.44 668.408 55.848 667.304 55.176 666.088C54.504 664.872 53.832 663.816 53.16 662.92L57.912 661ZM20.856 669.832C21.816 669.928 22.888 670.008 24.072 670.072C25.288 670.136 26.328 670.168 27.192 670.168H51.672C52.44 670.168 53.304 670.152 54.264 670.12C55.224 670.088 55.88 670.056 56.232 670.024C56.2 670.6 56.168 671.352 56.136 672.28C56.104 673.208 56.088 674.072 56.088 674.872V699.784C56.088 700.584 56.104 701.592 56.136 702.808C56.2 704.024 56.264 705.096 56.328 706.024H47.88C47.912 705.096 47.928 704.2 47.928 703.336C47.96 702.472 47.976 701.592 47.976 700.696V677.704H27.192C26.104 677.704 24.952 677.72 23.736 677.752C22.552 677.784 21.592 677.832 20.856 677.896V669.832ZM20.28 695.656C21.208 695.72 22.216 695.784 23.304 695.848C24.392 695.912 25.496 695.944 26.616 695.944H52.68V703.624H26.856C25.96 703.624 24.856 703.656 23.544 703.72C22.232 703.784 21.144 703.864 20.28 703.96V695.656Z" fill="white"/>
</svg>
