<svg width="78" height="298" viewBox="0 0 78 298" fill="none" xmlns="http://www.w3.org/2000/svg">
<rect width="78" height="298" fill="#EB008B"/>
<path d="M51.192 35.632C51.608 36.24 52.04 36.944 52.488 37.744C52.968 38.512 53.416 39.296 53.832 40.096C54.28 40.864 54.632 41.536 54.888 42.112L50.136 44.08C49.848 43.376 49.496 42.64 49.08 41.872C48.664 41.104 48.232 40.352 47.784 39.616C47.368 38.848 46.936 38.16 46.488 37.552L51.192 35.632ZM57.912 34C58.328 34.608 58.776 35.312 59.256 36.112C59.736 36.88 60.184 37.648 60.6 38.416C61.048 39.184 61.416 39.84 61.704 40.384L56.952 42.4C56.44 41.408 55.848 40.304 55.176 39.088C54.504 37.872 53.832 36.816 53.16 35.92L57.912 34ZM20.856 42.832C21.816 42.928 22.888 43.008 24.072 43.072C25.288 43.136 26.328 43.168 27.192 43.168H51.672C52.44 43.168 53.304 43.152 54.264 43.12C55.224 43.088 55.88 43.056 56.232 43.024C56.2 43.6 56.168 44.352 56.136 45.28C56.104 46.208 56.088 47.072 56.088 47.872V72.784C56.088 73.584 56.104 74.592 56.136 75.808C56.2 77.024 56.264 78.096 56.328 79.024H47.88C47.912 78.096 47.928 77.2 47.928 76.336C47.96 75.472 47.976 74.592 47.976 73.696V50.704H27.192C26.104 50.704 24.952 50.72 23.736 50.752C22.552 50.784 21.592 50.832 20.856 50.896V42.832ZM20.28 68.656C21.208 68.72 22.216 68.784 23.304 68.848C24.392 68.912 25.496 68.944 26.616 68.944H52.68V76.624H26.856C25.96 76.624 24.856 76.656 23.544 76.72C22.232 76.784 21.144 76.864 20.28 76.96V68.656ZM51.192 125.632C51.608 126.24 52.04 126.944 52.488 127.744C52.968 128.512 53.416 129.296 53.832 130.096C54.28 130.864 54.632 131.536 54.888 132.112L50.136 134.08C49.848 133.376 49.496 132.64 49.08 131.872C48.664 131.104 48.232 130.352 47.784 129.616C47.368 128.848 46.936 128.16 46.488 127.552L51.192 125.632ZM57.912 124C58.328 124.608 58.776 125.312 59.256 126.112C59.736 126.88 60.184 127.648 60.6 128.416C61.048 129.184 61.416 129.84 61.704 130.384L56.952 132.4C56.44 131.408 55.848 130.304 55.176 129.088C54.504 127.872 53.832 126.816 53.16 125.92L57.912 124ZM20.856 132.832C21.816 132.928 22.888 133.008 24.072 133.072C25.288 133.136 26.328 133.168 27.192 133.168H51.672C52.44 133.168 53.304 133.152 54.264 133.12C55.224 133.088 55.88 133.056 56.232 133.024C56.2 133.6 56.168 134.352 56.136 135.28C56.104 136.208 56.088 137.072 56.088 137.872V162.784C56.088 163.584 56.104 164.592 56.136 165.808C56.2 167.024 56.264 168.096 56.328 169.024H47.88C47.912 168.096 47.928 167.2 47.928 166.336C47.96 165.472 47.976 164.592 47.976 163.696V140.704H27.192C26.104 140.704 24.952 140.72 23.736 140.752C22.552 140.784 21.592 140.832 20.856 140.896V132.832ZM20.28 158.656C21.208 158.72 22.216 158.784 23.304 158.848C24.392 158.912 25.496 158.944 26.616 158.944H52.68V166.624H26.856C25.96 166.624 24.856 166.656 23.544 166.72C22.232 166.784 21.144 166.864 20.28 166.96V158.656ZM51.192 215.632C51.608 216.24 52.04 216.944 52.488 217.744C52.968 218.512 53.416 219.296 53.832 220.096C54.28 220.864 54.632 221.536 54.888 222.112L50.136 224.08C49.848 223.376 49.496 222.64 49.08 221.872C48.664 221.104 48.232 220.352 47.784 219.616C47.368 218.848 46.936 218.16 46.488 217.552L51.192 215.632ZM57.912 214C58.328 214.608 58.776 215.312 59.256 216.112C59.736 216.88 60.184 217.648 60.6 218.416C61.048 219.184 61.416 219.84 61.704 220.384L56.952 222.4C56.44 221.408 55.848 220.304 55.176 219.088C54.504 217.872 53.832 216.816 53.16 215.92L57.912 214ZM20.856 222.832C21.816 222.928 22.888 223.008 24.072 223.072C25.288 223.136 26.328 223.168 27.192 223.168H51.672C52.44 223.168 53.304 223.152 54.264 223.12C55.224 223.088 55.88 223.056 56.232 223.024C56.2 223.6 56.168 224.352 56.136 225.28C56.104 226.208 56.088 227.072 56.088 227.872V252.784C56.088 253.584 56.104 254.592 56.136 255.808C56.2 257.024 56.264 258.096 56.328 259.024H47.88C47.912 258.096 47.928 257.2 47.928 256.336C47.96 255.472 47.976 254.592 47.976 253.696V230.704H27.192C26.104 230.704 24.952 230.72 23.736 230.752C22.552 230.784 21.592 230.832 20.856 230.896V222.832ZM20.28 248.656C21.208 248.72 22.216 248.784 23.304 248.848C24.392 248.912 25.496 248.944 26.616 248.944H52.68V256.624H26.856C25.96 256.624 24.856 256.656 23.544 256.72C22.232 256.784 21.144 256.864 20.28 256.96V248.656Z" fill="white"/>
</svg>
