<?xml version="1.0" encoding="UTF-8"?>
<svg id="Capa_2" data-name="Capa 2" xmlns="http://www.w3.org/2000/svg" viewBox="0 0 825.84 157.89">
  <defs>
    <style>
      .cls-1 {
        fill: #fff;
      }
    </style>
  </defs>
  <g id="Capa_3" data-name="Capa 3">
    <g>
      <path d="M79.66.02v21.48c0,.45,1.3,8.11,1.49,8.5.77,1.63,2.38,1.83,3.96,2.03,8.29,1.07,22.97-.06,32.05,0,156.01.92,313.1,5.12,469.36,7.99,39.45.73,77.67-.14,116.87,2.99,3.36.27,19.08-1.37,19.56.63.87,5.59-.95,11.55-1.09,16.78-.35,14.01-.93,26.3-1.95,40-.46,6.14.69,12.5-.45,18.53l-2.06.94c-111.84-1.39-223.83,1.82-335.65.05-60.17-.96-120.49-2.66-180.69-3.09-38.76-.28-77.75-.12-116.39.56-.47.22-2.01,1.81-2.01,1.98v38.46c-3.69.55-7.18-3.1-10-5.48-9-7.57-17.73-18.2-26.43-26.51-15.3-14.61-31.25-28.58-46.23-43.53l1.11-5.05c9.76-9.92,21.03-19.03,29.08-30.33,15.22-12.41,29.29-32.8,44.46-44.43,1.49-1.14,2.94-2.68,5.01-2.48ZM169.05,52.96c5.65.12,11.32-.09,16.98,0,1.64,1.08,1.6,2.67,1.59,4.49-.07,12.84-3.19,26.02-2.07,38.95,1.4,16.11,10.28,17.01,18.75,4.8-.64-15.68-1.83-31.64.22-47.23h34.46c.59,0,2.04-2.25,1.5-2.98-8.75-.94-7.63-7.35-16.44-8.04-15.99-1.25-32.1,1.35-48.02,1.08-5.06-.08-10.43-1.88-15.77-1.09-4.25,3.63,2.76,10.03,6.34,10.63,1.57.26,2.21-.6,2.48-.6ZM665.72,113.64c3.26-3-3.34-5.44-4.98-8.01-4.51-7.1-2.69-27.49-1.75-36.18.43-3.99,7.51-26.89-2.03-22.01-1.45.74-7.75,18.52-8.48,21.49-1.21,4.98-1.1,9.77-2.43,14.55-4.7.7-19.53,4.3-21.5,8.47-1,2.12-.28,4.87-2.06,6.93-2.76,3.2-13.23,3.78-17.45,4.01,1.07-4.39,8.46-3.83,12.33-6.14,8.69-5.18,5.68-15.21-3.27-17.4-14.56-3.56-32.89,12.05-20.05,26.03,5.11,5.57,11.8,7.29,19.21,6.23,5.22-.75,9.62-4.84,14.24-4.83,5.12,0,10.52,4.92,15.9,4.08,2.92-.46,6.43-5.17,7.93-4.91,3.95,2.56,9.08,12.53,14.37,7.67ZM368.66,100.56c1.64,1.94,9.24,7.87,11.65,8.83,11.78,4.72,19.33-2.14,29.57-2.39,8.3-.21,16.66,4.32,22.82-5.14,10.43-16.03-20.5-28.88-28.85-17.87-5.6,7.38.83,19.87-14.03,16.89-3.78-.75-8.89-10.71-9.42-14.55-1.07-7.73,1.19-20.27,9.35-23.47s9.15,7.54,17.99.05c2.6-2.2,4.32-3.13,2.79-6.68-6.76-15.65-24.62-4.92-32.73,3.7-9.42,10.01-19.93,27.86-9.13,40.62ZM311.08,66.64c.66-.71,1.92-3.4,2-4.33,1.24-14.08-27.47-11.55-36.1-13.31-1.43.08-3.1.9-4.02,1.99-1.88,2.24-4.36,23.12-4.57,27.39s.52,25.47,3.01,28.04c17.38,6.97,33.37,2.75,45.96-10.52,1.78,15.97,25.75,22.91,33.97,8.52-6.53-6.22-19.75,2.09-23.97-8,.44-2.15,13.62-2.09,16.25-2.74,10.03-2.45,20.08-12.43,7.42-19.96-9.97-5.93-22.99-2.52-29.68,6.69-1.17,1.62-1.57,6.32-3.48,5.49l-13.43-13.61c-.44-2.52,5.28-4.22,6.61-5.66ZM503.12,66.99l-10.49-3.04c-2.64-2.23,2.45-13.74-2.97-14.06-8.41-.51-5.56,11.75-8.43,13.6-3.09.73-11.89.04-12.93,4.13-1.32,5.18,8.91,4.44,10.47,9.26,1.03,3.18-1.15,13.47-.59,18.53.23,2.03,1.5,6.85,2.55,8.44,2.08,3.15,12.9,9.52,13.48,2.49.22-3.57-4.44-5.91-5.02-8.96-.62-3.27-.33-15.07.64-18.29,2.65-8.79,13.44-1.79,13.28-12.1ZM511.38,66.7c13.25,5.34,12.73-15.1-.19-12.68-.35,4.27-2.35,8.64.19,12.68ZM531.13,85.91c-.51-.47,4.09-13.63-4.02-9.51-3.85,1.95-7.04,25.01-3.5,28.51,7.02,6.96,10.51-15.7,18.5-13.01l1.44,14.05c10.63,6.24,8.58-17.6,5.61-21.58-4.75-6.36-15.83,3.59-18.03,1.54ZM577.08,76.94c.33,4.51-2.86,21-8.52,21.02-7.45-1.62.59-19.88-6.94-19.07-5.79.63-9.01,20.64-4.51,24.48,2.54,2.17,11.05,3.16,14.22,2.28,3.52-.98,3.79-4.43,9.25-.77,1.01,0,1.97-.62,2.56-1.4,2.41-3.18.21-19.93.77-24.91-.81-2.46-4.7-1.57-6.84-1.63ZM219.26,80.11c-8.94.97-14.37,13.19-8.78,20.31,9.48,12.08,37.56,3.24,26.44-14.46-2.8-4.45-12.82-6.38-17.67-5.86ZM450.24,87.91l-.94-4.55-5.97-.33c-.86,5.27-6.47,19.26-.1,22.4,6.01,2.96,10.51-8.81,15.53-9.52,2.77-.35,1.97,5.02,2.97,6.97,1.39,2.68,5.05,3.19,7.7,2.82,12.58-1.74,8.8-21.06-2.67-20.81-2.75.06-15.47,4.12-16.52,3.02ZM511.89,102.63c1.9-1.78,3.64-12.21,2.55-14.45-1.67-3.45-10.05-4.74-12.21-1.69-1.47,2.07-1.67,12.12-.57,14.41,1.43,3,7.8,4.01,10.24,1.73Z"/>
      <path d="M789.67,43.11c2.31,3.33.23,6.3.15,9.36-.55,21.17,2.54,42.65-1.02,63.89-.94,5.63-8.65,2.14-12.32,3.44l-2.93-3.17-19.69-73.65c11.97-1.2,23.72.36,35.81.14Z"/>
      <path d="M730.39,119.88c-1.43-.88-1.38-1.99-1.55-3.45-1.22-10.36.51-22.71.85-33.01.06-1.74-.99-3.76-.9-5.99.44-11.05,3.69-22.85,2.1-34.45l11.28-.11c10.54,23.8,14.98,49.68,21.27,74.94l-1.1,2.07h-31.96Z"/>
      <path d="M821.63,119.74l-21.83-1.85c.58-15.38-.77-31.07.02-46.43.18-3.45,1.63-7.47,1.97-11.02.59-6.19-1.7-13.29,2.69-18.5l16.66-.85c2.84,1,4.75,13.14,4.71,16.38-.12,8.53-3.73,19.57-4,26.03-.39,9.29.74,22.37.94,31.91.03,1.47-.55,3.02-1.16,4.34Z"/>
      <path class="cls-1" d="M311.08,66.64c-1.33,1.44-7.05,3.13-6.61,5.66l13.43,13.61c1.91.82,2.3-3.88,3.48-5.49,6.68-9.21,19.71-12.62,29.68-6.69,12.66,7.53,2.61,17.51-7.42,19.96-2.63.64-15.81.59-16.25,2.74,4.22,10.09,17.43,1.78,23.97,8-8.23,14.39-32.19,7.45-33.97-8.52-12.59,13.27-28.58,17.48-45.96,10.52-2.49-2.56-3.22-23.61-3.01-28.04s2.69-25.16,4.57-27.39c.92-1.09,2.59-1.91,4.02-1.99,8.63,1.76,37.34-.77,36.1,13.31-.08.93-1.34,3.62-2,4.33ZM295.19,61.15c-.82-1.44-8.97-4.13-11.12-3.07-2.18.73-2.1,5.42-1.5,7.23,1.17,3.52,15.78,1.39,12.62-4.16ZM284.06,78.05c-1.68.56-2.51,10.8-2.63,13.37-.1,2.34-.58,6.21.89,8.08,6.05,4.08,22.55.21,23.06-8.16.23-3.73-5.53-10.88-8.93-11.97-1.66-.53-11.05-1.77-12.4-1.32ZM347.34,83.91c-.69-9.4-16.43-7.57-15.97,2l15.97-2Z"/>
      <path class="cls-1" d="M368.66,100.56c-10.81-12.76-.29-30.61,9.13-40.62,8.11-8.62,25.97-19.35,32.73-3.7,1.53,3.55-.19,4.48-2.79,6.68-8.84,7.49-9.85-3.23-17.99-.05s-10.42,15.74-9.35,23.47c.53,3.84,5.64,13.79,9.42,14.55,14.87,2.97,8.43-9.51,14.03-16.89,8.35-11.01,39.29,1.83,28.85,17.87-6.16,9.46-14.52,4.93-22.82,5.14-10.24.26-17.78,7.11-29.57,2.39-2.4-.96-10.01-6.89-11.65-8.83ZM414.93,89.06c-3.73,1.26-4.93,9.91.88,10.85,11.97,1.95,9.45-14.34-.88-10.85Z"/>
      <path class="cls-1" d="M665.72,113.64c-5.29,4.85-10.42-5.12-14.37-7.67-1.5-.26-5.01,4.46-7.93,4.91-5.38.84-10.78-4.08-15.9-4.08-4.62,0-9.02,4.08-14.24,4.83-7.41,1.06-14.1-.67-19.21-6.23-12.85-13.99,5.48-29.6,20.05-26.03,8.95,2.19,11.96,12.23,3.27,17.4-3.88,2.31-11.26,1.75-12.33,6.14,4.23-.23,14.7-.81,17.45-4.01,1.77-2.06,1.06-4.81,2.06-6.93,1.96-4.17,16.8-7.77,21.5-8.47,1.33-4.78,1.21-9.57,2.43-14.55.72-2.97,7.03-20.75,8.48-21.49,9.54-4.88,2.46,18.02,2.03,22.01-.94,8.69-2.75,29.08,1.75,36.18,1.63,2.57,8.24,5.02,4.98,8.01ZM613.03,92.91c.32-10.66-12.61-7.79-12.99,1l12.99-1ZM635.26,100.65c1.59,1.36,11.04,2.05,12.3.32,2.15-13.67-19.74-6.68-12.3-.32Z"/>
      <path class="cls-1" d="M169.05,52.96c-.28,0-.92.86-2.48.6-3.58-.6-10.59-7-6.34-10.63,5.33-.79,10.71,1.01,15.77,1.09,15.92.27,32.03-2.33,48.02-1.08,8.81.69,7.69,7.1,16.44,8.04.54.73-.9,2.98-1.5,2.98h-34.46c-2.05,15.59-.86,31.55-.22,47.23-8.47,12.22-17.35,11.32-18.75-4.8-1.12-12.93,2-26.11,2.07-38.95,0-1.81.05-3.41-1.59-4.49-5.66-.09-11.32.12-16.98,0Z"/>
      <path class="cls-1" d="M503.12,66.99c.16,10.31-10.63,3.31-13.28,12.1-.97,3.22-1.26,15.03-.64,18.29.58,3.04,5.23,5.38,5.02,8.96-.58,7.03-11.4.66-13.48-2.49-1.05-1.59-2.33-6.4-2.55-8.44-.56-5.06,1.61-15.35.59-18.53-1.56-4.83-11.79-4.09-10.47-9.26,1.04-4.09,9.84-3.4,12.93-4.13,2.87-1.85.02-14.11,8.43-13.6,5.42.33.33,11.83,2.97,14.06l10.49,3.04Z"/>
      <path class="cls-1" d="M450.24,87.91c1.05,1.1,13.77-2.96,16.52-3.02,11.47-.25,15.26,19.07,2.67,20.81-2.65.37-6.31-.14-7.7-2.82-1.01-1.94-.21-7.32-2.97-6.97-5.02.71-9.53,12.48-15.53,9.52-6.37-3.14-.76-17.13.1-22.4l5.97.33.94,4.55Z"/>
      <path class="cls-1" d="M219.26,80.11c4.84-.52,14.87,1.4,17.67,5.86,11.12,17.7-16.96,26.54-26.44,14.46-5.59-7.13-.17-19.35,8.78-20.31ZM221.23,89.06c-10.26,2.01-.8,13.38,5.27,7.37,3.03-3-1.07-8.19-5.27-7.37Z"/>
      <path class="cls-1" d="M577.08,76.94c2.14.05,6.03-.83,6.84,1.63-.56,4.99,1.63,21.74-.77,24.91-.59.78-1.56,1.4-2.56,1.4-5.46-3.66-5.73-.21-9.25.77-3.17.88-11.67-.11-14.22-2.28-4.5-3.84-1.28-23.86,4.51-24.48,7.53-.81-.51,17.45,6.94,19.07,5.66-.02,8.84-16.51,8.52-21.02Z"/>
      <path class="cls-1" d="M531.13,85.91c2.2,2.05,13.27-7.9,18.03-1.54,2.98,3.98,5.02,27.82-5.61,21.58l-1.44-14.05c-7.99-2.69-11.48,19.97-18.5,13.01-3.54-3.51-.35-26.56,3.5-28.51,8.12-4.12,3.51,9.04,4.02,9.51Z"/>
      <path class="cls-1" d="M511.89,102.63c-2.44,2.29-8.81,1.27-10.24-1.73-1.09-2.29-.9-12.34.57-14.41,2.16-3.05,10.54-1.76,12.21,1.69,1.09,2.24-.65,12.67-2.55,14.45Z"/>
      <path class="cls-1" d="M511.38,66.7c-2.54-4.04-.54-8.42-.19-12.68,12.91-2.42,13.44,18.02.19,12.68Z"/>
      <path d="M284.06,78.05c1.35-.45,10.74.79,12.4,1.32,3.39,1.09,9.15,8.24,8.93,11.97-.51,8.37-17.01,12.23-23.06,8.16-1.47-1.87-.99-5.74-.89-8.08.11-2.57.94-12.81,2.63-13.37Z"/>
      <path d="M295.19,61.15c3.16,5.55-11.46,7.68-12.62,4.16-.6-1.81-.68-6.5,1.5-7.23,2.15-1.06,10.3,1.63,11.12,3.07Z"/>
      <path d="M347.34,83.91l-15.97,2c-.46-9.57,15.28-11.41,15.97-2Z"/>
      <path d="M414.93,89.06c10.33-3.48,12.85,12.8.88,10.85-5.81-.95-4.61-9.6-.88-10.85Z"/>
      <path d="M635.26,100.65c-7.45-6.36,14.45-13.35,12.3.32-1.26,1.73-10.7,1.04-12.3-.32Z"/>
      <path d="M613.03,92.91l-12.99,1c.38-8.78,13.31-11.66,12.99-1Z"/>
      <path d="M221.23,89.06c4.2-.82,8.3,4.36,5.27,7.37-6.07,6.01-15.53-5.35-5.27-7.37Z"/>
    </g>
  </g>
</svg>